<svg xmlns="http://www.w3.org/2000/svg" width="138" height="58" viewBox="0 0 138 58">
    <g fill="none" fill-rule="evenodd">
        <path fill="#00F0FF" d="M70.44 19.2l-.853 4.8H56.253L59.08 8h4.8l-1.973 11.2h8.533zM85.453 24h-4.8l-.16-2.133H75.96L75.053 24h-4.8L77.08 8h7.2l1.173 16zm-5.226-6.133l-.4-5.067-2.134 5.067h2.534zM103.48 8l-6.827 16h-7.2L88.28 8h4.8l.827 11.2L98.68 8h4.8zm5.467 0l-2.827 16h-4.8l2.827-16h4.8z"/>
        <path fill="#FFF" d="M73.747 30l-.854 4.8h-9.866l-.24 1.333h6.133c.924 0 1.68.294 2.267.88.586.587.88 1.325.88 2.214 0 .213-.018.426-.054.64l-.426 2.4c-.178 1.03-.698 1.91-1.56 2.64-.863.729-1.81 1.093-2.84 1.093H56.253l.854-4.8h9.866l.24-1.333H61.08c-.924 0-1.68-.294-2.267-.88-.586-.587-.88-1.316-.88-2.187 0-.231.018-.453.054-.667l.426-2.4c.178-1.03.698-1.91 1.56-2.64.863-.729 1.81-1.093 2.84-1.093h10.934zM89.133 33.093c0 .214-.017.427-.053.64l-.427 2.4c-.177 1.031-.693 1.911-1.546 2.64-.854.73-1.796 1.094-2.827 1.094h-6.133L77.053 46h-4.8l2.827-16h10.933c.907 0 1.654.293 2.24.88.587.587.88 1.324.88 2.213zm-5.04 1.707h-5.066l-.24 1.333h5.066l.24-1.333zM105.133 33.093c0 .214-.017.427-.053.64l-1.493 8.534c-.178 1.03-.698 1.91-1.56 2.64-.863.729-1.81 1.093-2.84 1.093h-7.2c-.907 0-1.654-.293-2.24-.88-.587-.587-.88-1.324-.88-2.213 0-.214.017-.427.053-.64l1.493-8.534c.178-1.03.698-1.91 1.56-2.64.863-.729 1.81-1.093 2.84-1.093h7.2c.907 0 1.654.293 2.24.88.587.587.88 1.324.88 2.213zm-5.04 1.707h-5.066l-1.12 6.4h5.066l1.12-6.4zM121.133 33.093c0 .214-.017.427-.053.64l-.427 2.4c-.089.551-.542 1.174-1.36 1.867.48.604.72 1.138.72 1.6v.267L118.92 46h-4.8l1.093-6.133h-5.066L109.053 46h-4.8l2.827-16h10.933c.907 0 1.654.293 2.24.88.587.587.88 1.324.88 2.213zm-5.04 1.707h-5.066l-.24 1.333h5.066l.24-1.333zM137.747 30l-.854 4.8h-4.933L129.987 46h-4.8l1.973-11.2h-4.933l.853-4.8zM29.688 22.968l2.266 1.648 2.274 1.651a.386.386 0 0 1 .137.442l-.865 2.662-.868 2.673a.386.386 0 0 1-.367.267h-5.62a.386.386 0 0 1-.375-.29l-.86-2.65-.869-2.672a.385.385 0 0 1 .14-.432l2.274-1.651 2.274-1.653a.387.387 0 0 1 .459.005zM32.3 37.04l.539-.826 1.32-2.025a.385.385 0 0 1 .21-.158l.529-.163c-.145.76-.318 1.516-.518 2.268l-2.08.904zm-9.106 3.956a14.27 14.27 0 0 1-4.02-2.828A14.207 14.207 0 0 1 15 28.093c0-3.934 1.596-7.497 4.175-10.076a14.266 14.266 0 0 1 4.88-3.198l8.524 4.413-.593.22-2.265.843a.383.383 0 0 1-.261.002l-2.28-.798-2.282-.8a.387.387 0 0 1-.198-.572l.856-1.337.253-.395a12.177 12.177 0 0 0-5.177 3.079 12.14 12.14 0 0 0-1.279 1.503l.38-.125 1.507-.495a.387.387 0 0 1 .503.335h.001l.205 2.409.204 2.408a.387.387 0 0 1-.07.257l-1.38 1.98-1.38 1.983a.386.386 0 0 1-.626.012l-1.037-1.159-.597-.668c-.002.06-.002.119-.002.179 0 2.855.983 5.481 2.628 7.559l.029-.913.05-1.586a.385.385 0 0 1 .485-.36l2.333.632 2.333.632a.385.385 0 0 1 .222.16l1.385 1.968 1.39 1.977a.386.386 0 0 1-.187.586l-1.457.583-.846.338c.159.053.32.103.48.149l-2.711 1.178zm22.499-12.34l.007-.29.002-.151c-.023-2.026-.926-3.558-2.408-4.89-1.099-.988-2.52-1.888-4.144-2.792.45 2.165.714 4.352.773 6.562A35.606 35.606 0 0 1 39 36.149c1.778-.874 3.278-1.79 4.408-2.838 1.37-1.27 2.19-2.758 2.286-4.655zm-2.165 7.856c-.103.169-.21.336-.32.5-1.557 2.348-3.8 4.286-6.495 6.188l-.125.088a41.2 41.2 0 0 0 1.496-3.877c2.078-.907 3.918-1.839 5.444-2.899zM36.663 12.59c2.568 2.173 4.825 4.193 6.43 6.537.304.446.586.906.844 1.383-1.586-1.195-3.516-2.257-5.646-3.37-.455-1.527-1-3.042-1.628-4.55zm-12.021.394l11.47 5.939c.733 2.716 1.156 5.459 1.23 8.234.092 3.394-.341 6.846-1.374 10.363l-15.833 6.878a1.29 1.29 0 0 0 1.021 2.368l13.667-5.936a43.602 43.602 0 0 1-2.757 5.653L19.9 55.068a1.294 1.294 0 0 0 1.488 2.115l16.813-11.868c2.933-2.07 5.395-4.21 7.165-6.875 1.742-2.625 2.786-5.715 2.907-9.673a12.345 12.345 0 0 0 .01-.624c.025-4.394-1.131-7.661-3.056-10.475-1.91-2.79-4.544-5.069-7.524-7.574L26.064.302a1.29 1.29 0 0 0-1.66 1.974l7.458 6.273-.007.004c1.244 2.277 2.304 4.571 3.151 6.884l-9.18-4.751a1.293 1.293 0 0 0-1.184 2.297zm18.771 13.511a14.344 14.344 0 0 1-.096 3.899c-.286.556-.692 1.053-1.201 1.524-.17.158-.347.31-.531.458a37.454 37.454 0 0 0 .077-7.95c.124.103.245.206.362.312.601.541 1.08 1.106 1.39 1.757z"/>
        <path fill="#00F0FF" d="M1.296 29.592a1.296 1.296 0 0 1 0-2.592h8.387a1.295 1.295 0 1 1 0 2.592H1.296zM4.648 15.418a1.295 1.295 0 1 1 1.296-2.244l7.262 4.193a1.295 1.295 0 1 1-1.294 2.244l-7.264-4.193zM5.943 43.611a1.297 1.297 0 0 1-1.295-2.244l7.262-4.193a1.295 1.295 0 1 1 1.296 2.244L5.943 43.61z"/>
    </g>
</svg>
