<svg xmlns="http://www.w3.org/2000/svg" width="85" height="64" viewBox="0 0 85 64">
    <g fill="#4CD964" fill-rule="evenodd">
        <path d="M31.671 13.59l-3.869-9.447-4.162 1.703 3.875 9.465a29.162 29.162 0 0 1 4.156-1.72M21.629 19.225l-7.232-7.231-3.179 3.18 7.231 7.23c.978-1.139 2.04-2.2 3.18-3.18M14.64 28.074l-9.429-3.95-1.739 4.148 9.426 3.95a29.42 29.42 0 0 1 1.743-4.148M40.63 12.177c.757 0 1.503.058 2.247.114V2.061H38.38v10.23c.745-.056 1.49-.114 2.25-.114M53.952 15.412l3.95-9.429-4.144-1.736-3.95 9.423a28.958 28.958 0 0 1 4.144 1.742M68.443 32.441l9.445-3.867-1.705-4.16-9.461 3.874a29.075 29.075 0 0 1 1.721 4.153M62.809 22.401l7.227-7.229-3.179-3.18-7.229 7.23c1.14.977 2.201 2.039 3.18 3.18M11.405 41.404c0-.76.056-1.506.114-2.251H1.284v4.496H11.52c-.058-.744-.114-1.486-.114-2.245M69.743 39.154c.057.745.112 1.49.112 2.25 0 .759-.055 1.5-.112 2.247h10.226v-4.497H69.743M12.814 50.358l-9.45 3.873 1.705 4.158 9.467-3.875a29.482 29.482 0 0 1-1.722-4.156"/>
        <path d="M77.046 58.966l-4.048-1.954C75.388 52.06 76.6 46.81 76.6 41.404c0-19.834-16.136-35.97-35.97-35.97-19.833 0-35.97 16.136-35.97 35.97 0 5.405 1.213 10.656 3.604 15.608l-4.05 1.954C1.527 53.402.164 47.49.164 41.404.164 19.09 18.318.937 40.63.937S81.098 19.09 81.098 41.404c0 6.087-1.364 11.998-4.052 17.562"/>
        <path d="M40.628 36.91a4.5 4.5 0 0 0-4.494 4.494 4.5 4.5 0 0 0 4.494 4.494 4.5 4.5 0 0 0 4.495-4.494 4.5 4.5 0 0 0-4.495-4.494zm0 13.484c-4.957 0-8.99-4.033-8.99-8.99 0-4.958 4.033-8.99 8.99-8.99s8.99 4.032 8.99 8.99c0 4.957-4.033 8.99-8.99 8.99z"/>
        <path d="M82.553 63.344L45.8 46.28l1.892-4.08 36.754 17.065-1.892 4.079"/>
    </g>
</svg>
