<svg xmlns="http://www.w3.org/2000/svg" width="222" height="23" viewBox="0 0 222 23">
    <path fill="#434343" fill-rule="evenodd" d="M16.44 1v5.19h-5.19V22H5.88V6.19H.69V1h15.75zm18.747 19.44c-1.54 1.34-3.53 2.01-5.97 2.01s-4.435-.67-5.985-2.01c-1.55-1.34-2.325-3.12-2.325-5.34V1h5.37v13.59c0 1.76.98 2.64 2.94 2.64s2.94-.88 2.94-2.64V1h5.37v14.1c0 2.22-.78 4-2.34 5.34zM54.295 22l-3.66-6.78h-1.92V22h-5.37V1h8.4c2.14 0 3.935.685 5.385 2.055 1.45 1.37 2.175 3.105 2.175 5.205a6.53 6.53 0 0 1-.96 3.465 7.056 7.056 0 0 1-2.61 2.505l4.32 7.77h-5.76zm-5.58-16.05v4.71h2.97c.66.02 1.2-.19 1.62-.63.42-.44.63-1.01.63-1.71s-.21-1.27-.63-1.71c-.42-.44-.96-.66-1.62-.66h-2.97zm29.217 5.19c1.76 1.04 2.64 2.61 2.64 4.71 0 1.86-.64 3.35-1.92 4.47-1.28 1.12-2.99 1.68-5.13 1.68h-8.85V1h8.28c2.1 0 3.78.535 5.04 1.605 1.26 1.07 1.89 2.525 1.89 4.365 0 1.76-.65 3.15-1.95 4.17zm-5.13-5.34h-2.76v3.3h2.76c.48 0 .885-.145 1.215-.435.33-.29.495-.695.495-1.215 0-.5-.16-.9-.48-1.2-.32-.3-.73-.45-1.23-.45zm.57 11.4c.54 0 .98-.165 1.32-.495.34-.33.51-.755.51-1.275 0-.54-.17-.97-.51-1.29-.34-.32-.78-.48-1.32-.48h-3.33v3.54h3.33zm30.087 2.1c-2.12 2.1-4.72 3.15-7.8 3.15s-5.685-1.055-7.815-3.165c-2.13-2.11-3.195-4.705-3.195-7.785s1.065-5.675 3.195-7.785C89.974 1.605 92.58.55 95.66.55s5.685 1.055 7.815 3.165c2.13 2.11 3.195 4.705 3.195 7.785s-1.07 5.68-3.21 7.8zm-11.85-3.69c1.08 1.06 2.43 1.59 4.05 1.59 1.62 0 2.97-.535 4.05-1.605 1.08-1.07 1.62-2.435 1.62-4.095 0-1.66-.54-3.025-1.62-4.095-1.08-1.07-2.43-1.605-4.05-1.605-1.62 0-2.97.535-4.05 1.605-1.08 1.07-1.62 2.435-1.62 4.095 0 1.66.54 3.03 1.62 4.11zM120.436 1c2.9 0 5.325 1.005 7.275 3.015 1.95 2.01 2.925 4.505 2.925 7.485 0 2.98-.975 5.475-2.925 7.485-1.95 2.01-4.375 3.015-7.275 3.015h-8.55V1h8.55zm0 15.81c1.46 0 2.65-.485 3.57-1.455.92-.97 1.38-2.255 1.38-3.855s-.46-2.885-1.38-3.855c-.92-.97-2.11-1.455-3.57-1.455h-3.03v10.62h3.03zm20.788 0h7.23V22h-12.6V1h5.37v15.81zm15.507 5.61c-.88 0-1.625-.305-2.235-.915a3.005 3.005 0 0 1-.915-2.205c0-.86.31-1.595.93-2.205.62-.61 1.36-.915 2.22-.915.86 0 1.595.305 2.205.915.61.61.915 1.345.915 2.205 0 .86-.305 1.595-.915 2.205-.61.61-1.345.915-2.205.915zM177.008 1h5.34v21h-4.14l-7.41-10.56V22h-5.37V1h4.17l7.41 10.56V1zm16.767 15.96h8.13V22h-13.5V1h13.35v5.01h-7.98v2.91h7.23v4.95h-7.23v3.09zM221.583 1v5.19h-5.19V22h-5.37V6.19h-5.19V1h15.75z"/>
</svg>
