<svg xmlns="http://www.w3.org/2000/svg" width="72" height="72" viewBox="0 0 72 72">
    <g fill="none" fill-rule="evenodd">
        <path fill="#FFFFFE" d="M0 71.997h72V0H0z"/>
        <path fill="#4DD965" d="M61.258 47.907c.17.402.083.866-.222 1.179L49.174 61.272a1.086 1.086 0 0 1-1.556 0L35.756 49.086a1.085 1.085 0 0 1 .777-1.843h5.702V35.922c0-.6.486-1.085 1.085-1.085h10.151c.6 0 1.086.486 1.086 1.085v11.321h5.702c.436 0 .83.262 1 .664z"/>
        <path fill="#464644" d="M34.074 36.863a2.535 2.535 0 0 1-2.532-2.532 2.536 2.536 0 0 1 2.532-2.533 2.535 2.535 0 0 1 2.533 2.533 2.535 2.535 0 0 1-2.533 2.532zm4.704-2.532a4.67 4.67 0 0 0-.744-2.528l4.927-4.927a1.085 1.085 0 1 0-1.535-1.535l-4.952 4.952a4.668 4.668 0 0 0-2.4-.666 4.709 4.709 0 0 0-4.703 4.704 4.709 4.709 0 0 0 4.703 4.703 4.709 4.709 0 0 0 4.704-4.703zM34.074 21.56a1.085 1.085 0 1 0 0-2.17c-8.238 0-14.941 6.702-14.941 14.94 0 3.225 1.006 6.289 2.91 8.86a1.084 1.084 0 0 0 1.518.227 1.085 1.085 0 0 0 .227-1.518 12.626 12.626 0 0 1-2.484-7.568c0-7.042 5.729-12.771 12.77-12.771"/>
        <path fill="#464644" d="M29.806 47.248h-9.054a18.414 18.414 0 0 1-5.237-12.917c0-10.234 8.326-18.56 18.56-18.56 9.118 0 16.816 6.52 18.304 15.504a1.086 1.086 0 0 0 2.142-.354 20.753 20.753 0 0 0-6.976-12.345 20.723 20.723 0 0 0-13.47-4.976c-11.431 0-20.731 9.3-20.731 20.73 0 5.6 2.2 10.847 6.195 14.777.204.2.477.312.762.312h9.505a1.085 1.085 0 1 0 0-2.17"/>
    </g>
</svg>
