<svg xmlns="http://www.w3.org/2000/svg" width="175" height="17" viewBox="0 0 175 17">
    <path fill="#434343" fill-rule="evenodd" d="M.368.578h4.884l3.52 10.67 3.52-10.67h4.686L11.016 16H6.264L.368.578zm19.82 0h4.576V16h-4.576V.578zm15.926 0c1.643 0 3.091.319 4.345.957 1.254.638 2.226 1.54 2.915 2.706.69 1.166 1.034 2.512 1.034 4.037s-.352 2.875-1.056 4.048c-.704 1.173-1.694 2.079-2.97 2.717-1.276.638-2.75.957-4.422.957h-6.6V.578h6.754zm.132 11.836c1.041 0 1.885-.374 2.53-1.122.645-.748.968-1.738.968-2.97 0-1.232-.345-2.23-1.034-2.992-.69-.763-1.584-1.144-2.684-1.144h-2.09v8.228h2.31zM48.124.578H60.73v3.52H52.7v2.42h7.282v3.52H52.7v2.442h8.25V16H48.124V.578zm24.55-.286c1.584 0 3.018.345 4.301 1.034 1.283.69 2.288 1.639 3.014 2.849.726 1.21 1.089 2.57 1.089 4.081 0 1.525-.363 2.9-1.089 4.125a7.703 7.703 0 0 1-3.014 2.882c-1.283.697-2.717 1.045-4.301 1.045-1.599 0-3.036-.348-4.312-1.045a7.723 7.723 0 0 1-3.003-2.882c-.726-1.225-1.089-2.6-1.089-4.125 0-1.51.363-2.871 1.089-4.081.726-1.21 1.727-2.16 3.003-2.849C69.638.636 71.075.292 72.674.292zm.066 3.806c-.675 0-1.302.183-1.881.55a3.987 3.987 0 0 0-1.386 1.507 4.394 4.394 0 0 0-.517 2.123c0 .777.172 1.489.517 2.134a4.052 4.052 0 0 0 1.386 1.529c.58.374 1.206.561 1.881.561.66 0 1.272-.187 1.837-.561a3.882 3.882 0 0 0 1.331-1.518c.323-.638.484-1.353.484-2.145 0-.777-.161-1.485-.484-2.123a3.83 3.83 0 0 0-1.32-1.507 3.292 3.292 0 0 0-1.848-.55zM91.548.578c1.643 0 3.091.319 4.345.957 1.254.638 2.226 1.54 2.915 2.706.69 1.166 1.034 2.512 1.034 4.037s-.352 2.875-1.056 4.048c-.704 1.173-1.694 2.079-2.97 2.717-1.276.638-2.75.957-4.422.957h-6.6V.578h6.754zm.132 11.836c1.041 0 1.885-.374 2.53-1.122.645-.748.968-1.738.968-2.97 0-1.232-.345-2.23-1.034-2.992-.69-.763-1.584-1.144-2.684-1.144h-2.09v8.228h2.31zM103.558.578h4.576v11.594h6.468V16h-11.044V.578zm16.124 11.462c.616 0 1.118.19 1.507.572.389.381.583.873.583 1.474 0 .616-.194 1.118-.583 1.507-.389.389-.891.583-1.507.583-.601 0-1.096-.194-1.485-.583-.389-.389-.583-.891-.583-1.507 0-.601.194-1.093.583-1.474.389-.381.884-.572 1.485-.572zM136.246.578h4.18V16h-3.894l-6.534-8.58V16h-4.202V.578h3.916l6.534 8.602V.578zm8.776 0h12.606v3.52h-8.03v2.42h7.282v3.52h-7.282v2.442h8.25V16h-12.826V.578zm15.86 0h13.552V4.23h-4.488V16h-4.598V4.23h-4.466V.578z"/>
</svg>
