<svg xmlns="http://www.w3.org/2000/svg" width="34" height="24" viewBox="0 0 34 24">
    <path fill="#F1403C" fill-rule="nonzero" d="M17.815 24c-.001 0 0 0 0 0-3.867 0-8.076-.12-12.51-.356-2.62-.142-4.653-2.135-4.942-4.847a63.85 63.85 0 0 1 0-13.596C.652 2.511 2.68.518 5.298.356a192.386 192.386 0 0 1 23.402 0c2.648.159 4.631 2.104 4.938 4.842.482 4.336.483 8.91 0 13.597-.278 2.71-2.26 4.659-4.931 4.847-3.361.238-7.026.358-10.892.358zM16.91 1.288c-3.854 0-7.733.12-11.53.355-2 .123-3.495 1.608-3.719 3.694a62.6 62.6 0 0 0 0 13.325c.224 2.103 1.716 3.587 3.713 3.695 4.411.235 8.597.354 12.44.354 3.835 0 7.468-.119 10.799-.353 2.015-.143 3.512-1.627 3.725-3.693.474-4.598.474-9.08 0-13.325-.233-2.092-1.728-3.578-3.718-3.697a195.653 195.653 0 0 0-11.71-.355zM9.99 16.107H5.44V8.22h1.623v6.47H9.99v1.416zm1.626 0V8.22h1.622v7.886h-1.622zM19.93 8.22h1.704l-1.857 7.886H16.78L14.923 8.22h1.704l1.387 6.494h.529l1.387-6.494zm3.389 7.886V8.22h5.172v1.391h-3.55v1.844h2.845v1.369H24.94v1.89h3.55v1.392h-5.172z"/>
</svg>
